<?xml version="1.0" standalone="no"?>
<!DOCTYPE svg PUBLIC "-//W3C//DTD SVG 20010904//EN"
 "http://www.w3.org/TR/2001/REC-SVG-20010904/DTD/svg10.dtd">
<svg version="1.0" xmlns="http://www.w3.org/2000/svg"
 width="500.000000pt" height="500.000000pt" viewBox="0 0 500.000000 500.000000"
 preserveAspectRatio="xMidYMid meet">

<g transform="translate(0.000000,500.000000) scale(0.100000,-0.100000)"
fill="#000000" stroke="none">
<path d="M1615 4949 c-158 -23 -308 -77 -375 -136 -19 -16 -72 -46 -118 -65
-270 -116 -406 -253 -564 -568 -32 -63 -75 -161 -96 -218 -39 -102 -39 -103
-90 -128 -59 -29 -116 -89 -143 -149 -27 -62 -39 -194 -28 -311 26 -276 144
-538 282 -629 14 -9 42 -45 63 -82 48 -81 120 -148 207 -192 37 -19 67 -35 67
-37 0 -2 -21 -24 -46 -49 -51 -51 -89 -126 -103 -201 -5 -27 -9 -132 -10 -234
-1 -291 19 -419 91 -570 54 -112 149 -208 259 -262 l75 -36 13 -59 c20 -89 69
-219 114 -308 42 -81 104 -151 333 -379 200 -200 454 -306 734 -307 174 -1
303 27 445 98 106 53 173 103 251 185 131 138 189 247 259 484 9 31 113 61
283 84 l173 23 29 -35 c40 -48 78 -62 137 -52 47 9 132 13 242 14 30 0 64 7
76 14 19 13 57 77 69 118 3 10 20 18 48 23 130 19 134 23 198 188 107 273 216
619 299 953 69 274 78 331 60 369 -24 51 -68 65 -205 65 -346 0 -685 -71
-1067 -225 l-117 -47 -57 57 c-61 61 -141 125 -211 169 l-42 27 87 83 c152
145 203 265 223 525 16 208 1 397 -51 635 -50 227 -127 431 -193 507 -17 20
-52 70 -78 111 -124 194 -295 328 -505 397 -50 16 -118 44 -152 60 -139 71
-326 101 -606 100 -110 -1 -227 -5 -260 -10z m539 -59 c124 -18 225 -47 306
-87 70 -35 160 -108 160 -129 0 -17 -85 -62 -158 -84 -67 -20 -88 -22 -235
-17 -193 6 -272 22 -398 81 -151 70 -369 136 -451 136 -13 0 -29 4 -36 9 -30
19 184 79 358 100 91 12 346 6 454 -9z m-650 -190 c101 -26 198 -61 294 -106
133 -62 288 -94 460 -94 172 0 307 38 395 111 39 32 44 52 22 101 -6 16 -4 17
24 7 43 -15 141 -76 207 -129 54 -43 184 -192 184 -211 0 -5 -24 1 -52 12
-140 56 -241 79 -253 59 -4 -7 -11 -69 -14 -138 l-6 -126 -40 -27 c-90 -62
-223 -81 -375 -55 -166 29 -185 37 -305 135 -84 69 -117 90 -140 91 -97 0
-465 -123 -652 -219 l-42 -21 -108 108 c-94 94 -247 212 -274 212 -21 0 -5
-20 49 -61 71 -54 183 -166 240 -241 l44 -57 -42 -108 c-89 -228 -133 -471
-133 -733 0 -179 10 -263 50 -440 37 -167 33 -163 162 -204 375 -121 963 -155
1396 -80 256 45 480 124 634 225 66 44 17 -14 -71 -85 -187 -149 -415 -231
-788 -282 -174 -24 -607 -24 -815 0 -389 45 -712 125 -828 205 -45 31 -137
126 -137 142 0 5 25 9 55 9 108 0 163 48 196 168 24 84 25 270 3 397 -46 267
-181 523 -309 585 -25 12 -45 24 -45 26 0 14 90 224 126 294 134 260 253 393
434 485 141 72 157 76 270 71 58 -3 140 -15 184 -26z m1492 -901 c19 -11 54
-46 78 -77 48 -64 166 -260 166 -277 0 -22 -80 -75 -114 -75 -8 0 -24 17 -37
38 -50 85 -134 212 -141 212 -8 0 -32 -81 -55 -182 -8 -40 -19 -77 -23 -81
-10 -11 -106 3 -127 18 -17 13 -17 18 1 107 37 184 87 301 139 326 35 17 77
14 113 -9z m-2460 -25 c68 -44 140 -164 192 -319 47 -141 66 -247 66 -375 1
-189 -33 -294 -102 -314 -41 -11 -48 -4 -28 26 34 52 48 130 47 253 -1 190
-43 363 -124 520 -46 88 -126 190 -157 200 -40 13 -18 31 40 34 15 0 44 -11
66 -25z m1370 -46 c18 -12 51 -51 74 -85 53 -81 132 -248 128 -271 -3 -17 -80
-60 -110 -61 -12 -1 -36 36 -79 119 -34 66 -67 119 -73 117 -6 -2 -31 -64 -56
-137 -25 -74 -52 -136 -59 -138 -22 -7 -122 18 -127 33 -11 27 76 283 121 362
49 83 116 106 181 61z m-1476 -27 c116 -92 217 -363 227 -612 5 -110 3 -136
-15 -196 -26 -84 -58 -119 -99 -108 -29 7 -121 95 -144 136 -11 21 -7 20 25
-8 67 -59 119 -53 160 17 18 31 21 52 21 170 0 113 -4 147 -24 210 -66 211
-181 327 -261 262 -12 -10 -33 -49 -46 -88 l-24 -69 6 89 c8 112 25 170 61
208 33 34 59 32 113 -11z m1894 -536 c64 -20 161 -19 242 1 87 22 90 19 75
-96 -21 -163 -68 -248 -152 -270 -83 -23 -156 24 -203 131 -26 60 -46 150 -46
211 0 44 8 46 84 23z m835 -719 c82 -106 135 -293 116 -411 l-7 -50 -17 70
c-31 125 -64 218 -117 324 -29 58 -50 109 -48 113 12 19 34 5 73 -46z m1635
31 c14 -20 12 -36 -19 -172 -88 -387 -207 -777 -345 -1127 -23 -59 -47 -112
-54 -117 -7 -6 -37 -13 -67 -16 -54 -6 -54 -6 -69 27 -8 18 -29 40 -46 48 -17
9 -47 32 -68 53 -32 33 -42 37 -86 37 -40 0 -54 -5 -76 -28 -27 -28 -29 -28
-69 -13 -35 12 -44 12 -70 0 -39 -19 -71 -68 -79 -123 -13 -81 -11 -81 -295
-117 l-253 -33 -19 23 c-17 20 -18 35 -14 105 20 284 64 514 152 796 43 141
140 391 156 406 16 15 226 98 357 141 182 59 373 101 575 126 17 2 108 5 202
6 169 1 173 1 187 -22z m-1757 -44 c58 -86 118 -236 152 -378 23 -100 44 -236
37 -242 -3 -3 -24 8 -48 25 -125 86 -288 132 -458 131 -58 0 -123 -3 -145 -7
-26 -5 -62 -1 -105 10 -36 9 -83 17 -105 17 -47 1 -191 -48 -611 -210 -171
-65 -318 -119 -326 -119 -9 0 -37 19 -64 43 l-47 43 22 59 c29 76 38 192 21
279 -7 37 -31 104 -55 151 -23 47 -37 85 -31 85 6 0 52 -6 101 -14 50 -8 142
-20 205 -26 96 -10 119 -16 140 -35 70 -64 207 -139 310 -169 30 -9 107 -21
170 -28 158 -15 278 4 399 63 100 49 195 138 229 214 12 28 26 56 30 63 6 11
132 69 154 71 4 1 15 -11 25 -26z m-1995 -64 c81 -19 98 -26 135 -61 82 -79
127 -201 126 -338 0 -47 -6 -98 -13 -115 l-12 -30 -10 25 c-5 14 -16 72 -24
130 -24 176 -86 270 -223 339 -48 25 -73 31 -124 31 -36 0 -69 -5 -77 -12 -8
-7 -6 -2 5 11 25 30 74 52 102 46 12 -3 63 -14 115 -26z m2315 -51 l62 -63
-37 -84 -36 -85 -22 110 c-12 60 -28 126 -37 147 -24 55 -2 48 70 -25z m-586
25 c-5 -10 -27 -39 -50 -65 -173 -196 -515 -233 -806 -86 -32 16 -70 38 -83
49 l-25 19 103 0 c87 0 106 -3 131 -21 16 -11 55 -30 87 -42 76 -28 239 -29
327 -3 98 30 202 82 237 119 29 31 47 41 81 46 4 0 3 -7 -2 -16z m-147 -34
c-16 -26 -160 -80 -239 -91 -106 -13 -265 11 -265 40 0 5 73 14 163 21 89 7
194 18 232 26 92 17 118 18 109 4z m-1629 -48 c119 -57 164 -129 189 -305 20
-136 55 -216 126 -287 45 -45 50 -53 35 -61 -9 -6 -40 -29 -70 -53 -135 -110
-193 -204 -202 -331 l-6 -74 -56 31 c-124 69 -208 181 -257 344 -23 78 -27
114 -31 262 -7 210 6 313 48 401 51 106 114 126 224 73z m1415 -336 c0 -3 -24
-17 -54 -31 -139 -66 -263 -225 -301 -386 -8 -35 -15 -102 -15 -149 0 -85 0
-86 46 -155 52 -79 94 -124 141 -157 18 -12 33 -25 33 -28 0 -9 -99 -35 -210
-55 -134 -25 -513 -26 -620 -2 -220 49 -290 113 -290 269 0 72 34 140 108 217
79 82 161 132 315 192 116 46 697 268 737 283 19 7 110 9 110 2z m407 -16
c171 -23 346 -103 380 -174 14 -28 14 -38 3 -64 -19 -46 -48 -49 -154 -15 -64
20 -106 41 -141 69 -77 62 -112 85 -129 85 -9 0 -16 -3 -16 -6 0 -3 33 -42 74
-85 162 -172 210 -371 110 -459 -19 -16 -39 -30 -44 -30 -5 0 -14 19 -21 42
-16 60 -50 124 -102 188 -53 67 -123 118 -139 102 -7 -7 7 -27 49 -69 66 -65
103 -123 128 -201 17 -51 17 -55 0 -93 -23 -49 -59 -76 -113 -85 -56 -9 -92 1
-92 27 0 32 -46 114 -81 143 -48 41 -59 18 -19 -38 25 -34 34 -60 38 -99 4
-47 1 -55 -24 -80 -46 -47 -103 -48 -192 -6 -49 24 -192 159 -192 182 0 8 19
19 42 26 78 24 95 53 157 256 39 127 79 181 186 252 44 29 97 64 118 78 22 15
37 33 37 45 0 24 20 25 137 9z m-299 -69 c-149 -95 -193 -157 -248 -345 -17
-61 -38 -120 -46 -133 -15 -23 -46 -39 -96 -49 l-28 -5 0 58 c1 180 108 374
255 460 68 39 141 63 195 64 l45 0 -77 -50z m585 -257 l77 -18 -6 -40 c-3 -22
-11 -67 -18 -100 -11 -57 -14 -61 -50 -73 -21 -6 -42 -10 -47 -6 -5 3 -9 28
-9 55 0 28 -11 84 -25 125 -29 86 -29 87 -12 81 6 -3 47 -14 90 -24z m19 -335
c-2 -24 -7 -47 -12 -51 -9 -11 -252 -78 -258 -72 -8 8 19 35 35 35 29 0 93 41
124 79 30 38 46 46 94 50 18 1 20 -4 17 -41z m-12 -127 c0 -48 -22 -57 -71
-28 l-42 25 49 15 c66 20 64 21 64 -12z m974 7 c35 -49 10 -186 -40 -229 -30
-26 -49 -28 -83 -12 -29 15 -35 15 -67 0 -47 -23 -97 -22 -118 2 -16 18 -16
21 2 58 11 21 23 54 26 73 12 59 27 88 48 93 33 9 56 -25 64 -92 4 -34 10 -61
14 -61 16 0 29 28 36 77 9 72 36 113 73 113 20 0 35 -8 45 -22z m-1109 -45
c19 -9 35 -20 35 -23 0 -4 -27 -14 -59 -23 -54 -15 -63 -15 -105 -1 -25 9 -46
19 -46 23 0 6 96 36 127 40 7 0 28 -7 48 -16z m1209 -29 c17 -45 -3 -134 -38
-163 -25 -21 -26 -11 -6 49 11 30 19 72 20 93 0 38 13 50 24 21z m-1498 -13
c19 -18 349 -131 384 -131 29 0 39 -6 53 -29 9 -16 17 -32 17 -36 0 -17 -153
6 -263 39 -121 37 -295 102 -310 116 -5 4 -1 17 9 29 19 22 90 30 110 12z
m414 -40 c0 -40 -29 -48 -87 -26 -50 19 -49 25 10 42 69 18 77 17 77 -16z
m-1740 -91 c41 -11 123 -25 182 -31 l108 -12 -49 -52 c-28 -29 -65 -85 -84
-126 -65 -137 -98 -149 -172 -67 -25 28 -57 71 -71 94 -29 50 -89 195 -99 241
l-6 32 58 -30 c32 -16 92 -38 133 -49z m1180 30 c161 -80 435 -161 551 -162
l76 -1 -17 -56 c-19 -64 -89 -209 -126 -261 -85 -121 -264 -261 -398 -312
-189 -73 -459 -77 -651 -11 -79 27 -231 108 -293 155 -61 47 -150 134 -189
185 l-25 33 29 24 c17 14 51 68 77 120 51 101 102 159 173 194 26 13 80 22
173 30 129 11 336 54 408 84 49 21 146 11 212 -22z"/>
</g>
</svg>
